<mxfile host="app.diagrams.net" modified="2021-08-12T08:27:21.569Z" agent="5.0 (Windows NT 10.0; Win64; x64) AppleWebKit/537.36 (KHTML, like Gecko) Chrome/92.0.4515.131 Safari/537.36" etag="jEpxz-U4vncsPjwc5YpM" version="14.9.6" type="github">
  <diagram id="HCYBKvKFdF2aRRQCtzVC" name="Page-1">
    <mxGraphModel dx="1808" dy="542" grid="1" gridSize="10" guides="1" tooltips="1" connect="1" arrows="1" fold="1" page="1" pageScale="1" pageWidth="827" pageHeight="1169" math="0" shadow="0">
      <root>
        <mxCell id="0" />
        <mxCell id="1" parent="0" />
        <mxCell id="N8kStTzlwlveI4cRdLeB-20" style="edgeStyle=orthogonalEdgeStyle;rounded=0;orthogonalLoop=1;jettySize=auto;html=1;verticalAlign=middle;entryX=0.875;entryY=0.5;entryDx=0;entryDy=0;entryPerimeter=0;" edge="1" parent="1" source="N8kStTzlwlveI4cRdLeB-11" target="N8kStTzlwlveI4cRdLeB-21">
          <mxGeometry relative="1" as="geometry">
            <mxPoint x="250" y="600" as="targetPoint" />
          </mxGeometry>
        </mxCell>
        <mxCell id="N8kStTzlwlveI4cRdLeB-11" value="通过flag判断是当前文件已写完,需要创建新文件" style="rounded=1;whiteSpace=wrap;html=1;fillColor=none;direction=east;" vertex="1" parent="1">
          <mxGeometry x="335" y="570" width="150" height="60" as="geometry" />
        </mxCell>
        <mxCell id="N8kStTzlwlveI4cRdLeB-3" style="edgeStyle=orthogonalEdgeStyle;rounded=0;orthogonalLoop=1;jettySize=auto;html=1;exitX=0.5;exitY=1;exitDx=0;exitDy=0;entryX=0.5;entryY=0;entryDx=0;entryDy=0;" edge="1" parent="1" source="N8kStTzlwlveI4cRdLeB-1" target="N8kStTzlwlveI4cRdLeB-2">
          <mxGeometry relative="1" as="geometry" />
        </mxCell>
        <mxCell id="N8kStTzlwlveI4cRdLeB-1" value="开始" style="ellipse;whiteSpace=wrap;html=1;fillColor=#fff2cc;strokeColor=#d6b656;" vertex="1" parent="1">
          <mxGeometry x="350" y="370" width="120" height="80" as="geometry" />
        </mxCell>
        <mxCell id="N8kStTzlwlveI4cRdLeB-7" style="edgeStyle=orthogonalEdgeStyle;rounded=0;orthogonalLoop=1;jettySize=auto;html=1;verticalAlign=middle;entryX=0.5;entryY=0;entryDx=0;entryDy=0;exitX=0.5;exitY=1;exitDx=0;exitDy=0;" edge="1" parent="1" source="N8kStTzlwlveI4cRdLeB-12" target="N8kStTzlwlveI4cRdLeB-9">
          <mxGeometry relative="1" as="geometry">
            <mxPoint x="490" y="660" as="targetPoint" />
          </mxGeometry>
        </mxCell>
        <mxCell id="N8kStTzlwlveI4cRdLeB-8" value="否" style="edgeLabel;html=1;align=center;verticalAlign=middle;resizable=0;points=[];" vertex="1" connectable="0" parent="N8kStTzlwlveI4cRdLeB-7">
          <mxGeometry x="0.0897" relative="1" as="geometry">
            <mxPoint as="offset" />
          </mxGeometry>
        </mxCell>
        <mxCell id="N8kStTzlwlveI4cRdLeB-13" style="edgeStyle=orthogonalEdgeStyle;rounded=0;orthogonalLoop=1;jettySize=auto;html=1;entryX=0.5;entryY=0;entryDx=0;entryDy=0;verticalAlign=middle;" edge="1" parent="1" source="N8kStTzlwlveI4cRdLeB-2" target="N8kStTzlwlveI4cRdLeB-11">
          <mxGeometry relative="1" as="geometry" />
        </mxCell>
        <mxCell id="N8kStTzlwlveI4cRdLeB-2" value="读取一个bytes(1024*10)的长度" style="rounded=1;whiteSpace=wrap;html=1;" vertex="1" parent="1">
          <mxGeometry x="290" y="490" width="240" height="60" as="geometry" />
        </mxCell>
        <mxCell id="N8kStTzlwlveI4cRdLeB-5" value="写入文件剩余长度:file.length()-totalWriteLens&lt;br&gt;将bytes中剩余部分通过move()方法转移到surplusbytes中&lt;br&gt;将flag置为true:此文件以写完需要写新的文件" style="rounded=1;whiteSpace=wrap;html=1;" vertex="1" parent="1">
          <mxGeometry x="80" y="770" width="320" height="60" as="geometry" />
        </mxCell>
        <mxCell id="N8kStTzlwlveI4cRdLeB-10" style="edgeStyle=orthogonalEdgeStyle;rounded=0;orthogonalLoop=1;jettySize=auto;html=1;entryX=1;entryY=0.5;entryDx=0;entryDy=0;verticalAlign=middle;" edge="1" parent="1" source="N8kStTzlwlveI4cRdLeB-9" target="N8kStTzlwlveI4cRdLeB-2">
          <mxGeometry relative="1" as="geometry">
            <Array as="points">
              <mxPoint x="660" y="800" />
              <mxPoint x="660" y="520" />
            </Array>
          </mxGeometry>
        </mxCell>
        <mxCell id="N8kStTzlwlveI4cRdLeB-17" value="再次读取" style="edgeLabel;html=1;align=center;verticalAlign=middle;resizable=0;points=[];" vertex="1" connectable="0" parent="N8kStTzlwlveI4cRdLeB-10">
          <mxGeometry x="-0.2072" y="2" relative="1" as="geometry">
            <mxPoint as="offset" />
          </mxGeometry>
        </mxCell>
        <mxCell id="N8kStTzlwlveI4cRdLeB-9" value="记录已写长度即:&lt;br&gt;totalWriteLens+=length&lt;br&gt;直接写入到文件进行下一次读取" style="rounded=1;whiteSpace=wrap;html=1;" vertex="1" parent="1">
          <mxGeometry x="440" y="770" width="170" height="60" as="geometry" />
        </mxCell>
        <mxCell id="N8kStTzlwlveI4cRdLeB-14" style="edgeStyle=orthogonalEdgeStyle;rounded=0;orthogonalLoop=1;jettySize=auto;html=1;entryX=0.5;entryY=0;entryDx=0;entryDy=0;verticalAlign=middle;" edge="1" parent="1" source="N8kStTzlwlveI4cRdLeB-11" target="N8kStTzlwlveI4cRdLeB-12">
          <mxGeometry relative="1" as="geometry" />
        </mxCell>
        <mxCell id="N8kStTzlwlveI4cRdLeB-15" style="edgeStyle=orthogonalEdgeStyle;rounded=0;orthogonalLoop=1;jettySize=auto;html=1;entryX=0.5;entryY=0;entryDx=0;entryDy=0;verticalAlign=middle;" edge="1" parent="1" source="N8kStTzlwlveI4cRdLeB-12" target="N8kStTzlwlveI4cRdLeB-5">
          <mxGeometry relative="1" as="geometry" />
        </mxCell>
        <mxCell id="N8kStTzlwlveI4cRdLeB-16" value="是" style="edgeLabel;html=1;align=center;verticalAlign=middle;resizable=0;points=[];" vertex="1" connectable="0" parent="N8kStTzlwlveI4cRdLeB-15">
          <mxGeometry x="-0.149" y="2" relative="1" as="geometry">
            <mxPoint as="offset" />
          </mxGeometry>
        </mxCell>
        <mxCell id="N8kStTzlwlveI4cRdLeB-12" value="&lt;span&gt;判断(bytes+&lt;/span&gt;surplusbytes&lt;span&gt;&lt;br&gt;)是否比当前文件剩余写入长度长(file.length()-totalWriteLens)&lt;/span&gt;" style="rounded=1;whiteSpace=wrap;html=1;" vertex="1" parent="1">
          <mxGeometry x="287.5" y="660" width="245" height="60" as="geometry" />
        </mxCell>
        <mxCell id="N8kStTzlwlveI4cRdLeB-18" value="&lt;span&gt;对surplusbytes中是否有数据的判断&lt;br&gt;&lt;/span&gt;" style="rounded=1;whiteSpace=wrap;html=1;" vertex="1" parent="1">
          <mxGeometry x="-10" y="600" width="120" height="60" as="geometry" />
        </mxCell>
        <mxCell id="N8kStTzlwlveI4cRdLeB-21" value="是否可以通过surplusbytes内有数据来判断" style="ellipse;shape=cloud;whiteSpace=wrap;html=1;" vertex="1" parent="1">
          <mxGeometry x="140" y="560" width="120" height="80" as="geometry" />
        </mxCell>
        <mxCell id="N8kStTzlwlveI4cRdLeB-26" value="&lt;span&gt;写入应该为一个while循环,如果read和&lt;/span&gt;surplusbytes&lt;span&gt;不为空则需要循环写入&lt;/span&gt;" style="rounded=0;whiteSpace=wrap;html=1;" vertex="1" parent="1">
          <mxGeometry x="40" y="430" width="120" height="60" as="geometry" />
        </mxCell>
        <mxCell id="N8kStTzlwlveI4cRdLeB-29" value="" style="curved=1;endArrow=classic;html=1;verticalAlign=middle;exitX=1;exitY=0.5;exitDx=0;exitDy=0;" edge="1" parent="1" source="N8kStTzlwlveI4cRdLeB-26">
          <mxGeometry width="50" height="50" relative="1" as="geometry">
            <mxPoint x="200" y="520" as="sourcePoint" />
            <mxPoint x="410" y="550" as="targetPoint" />
            <Array as="points">
              <mxPoint x="250" y="520" />
              <mxPoint x="280" y="440" />
            </Array>
          </mxGeometry>
        </mxCell>
      </root>
    </mxGraphModel>
  </diagram>
</mxfile>
